#N canvas 413 185 1462 882 24;
#X obj 104 203 random 10;
#X obj 104 333 nbx 10 30 -1e+37 1e+37 0 0 empty empty empty 0 -8 0
28 -262144 -1 -1 7 256;
#X obj 105 48 bng 40 250 50 0 empty empty empty 17 7 0 10 -262144 -1
-1;
#X obj 316 721 nbx 10 30 -1e+37 1e+37 0 0 empty empty empty 0 -8 0
28 -262144 -1 -1 25859 256;
#X obj 317 456 bng 40 250 50 0 empty empty empty 17 7 0 10 -262144
-1 -1;
#X obj 316 611 random 48000;
#X text 255 201 the random object every time it receives an input output
a number between zero and the number you provide minus one (in this
example it can output one of ten numbers between zero and nine);
#X text 393 441 If you provide the total number of samples present
in an audio file the random object can output all possible access points
to the audio data as the "audio sample" is the smallest entity of an
audio data stream.;
#X text 510 606 if the duration of an audio file is 1 second the total
number of "audio samples" is 48 (in some circumstances this can change)
;
#X connect 0 0 1 0;
#X connect 2 0 0 0;
#X connect 4 0 5 0;
#X connect 5 0 3 0;
