#N canvas 334 97 1548 955 12;
#X obj 640 776 tabplay~ a1, f 23;
#X obj 971 518 soundfiler;
#X floatatom 1111 364 20 0 0 0 - - -;
#X obj 366 493 random, f 12;
#X obj 688 272 + 1;
#X obj 688 315 * 4800;
#X floatatom 545 661 10 0 0 0 - - -;
#X obj 640 743 pack f f;
#X floatatom 625 661 10 0 0 0 - - -;
#X obj 625 884 dac~ 1 2;
#X obj 374 155 t b b, f 42;
#X obj 811 102 bng 15 250 50 0 empty empty empty 17 7 0 10 -262144
-1 -1;
#X obj 1057 521 t b;
#X obj 163 551 / 10;
#X floatatom 163 594 10 0 0 0 - - -;
#X obj 249 554 / 48000;
#X floatatom 249 595 10 0 0 0 - - -;
#N canvas 0 50 450 250 (subpatch) 0;
#X array a1 958464 float 2;
#X coords 0 1 958464 -1 200 140 1;
#X restore 967 569 graph;
#X obj 907 522 / 48000;
#X floatatom 954 720 20 0 0 0 - - -;
#X obj 970 245 openpanel;
#X obj 921 109 bng 30 250 50 0 empty empty empty 17 7 0 10 -262144
-1 -1;
#X msg 970 279 read -resize \$1 a1;
#X text 511 661 dur;
#X text 699 661 start point;
#X text 133 594 dur;
#X text 325 594 start point;
#X text 132 616 ------------ in seconds ---------------;
#X text 1111 382 total dur audio file in samples;
#X text 505 684 ---------------------- in samples -----;
#X text 53 37 a simple random player;
#X text 55 159 Lazzaro 2020;
#X text 53 107 https://github.com/marrongiallo;
#X text 54 52 part of pisside V2.0;
#X text 961 116 <- click here to load audio from a file;
#X text 950 738 total duration audio file in seconds;
#X text 52 18 RANDOM PLAY;
#X text 830 339 RANDOM PLAY;
#X text 415 198 to "change music" try to write 2;
#X text 414 220 instead of 19 in the random object ->;
#X obj 682 219 random 2;
#X connect 0 0 9 0;
#X connect 0 0 9 1;
#X connect 0 1 11 0;
#X connect 1 0 2 0;
#X connect 1 0 18 0;
#X connect 1 1 12 0;
#X connect 2 0 3 1;
#X connect 3 0 8 0;
#X connect 3 0 15 0;
#X connect 4 0 5 0;
#X connect 4 0 13 0;
#X connect 5 0 6 0;
#X connect 6 0 7 1;
#X connect 7 0 0 0;
#X connect 8 0 7 0;
#X connect 10 0 3 0;
#X connect 10 1 40 0;
#X connect 11 0 10 0;
#X connect 12 0 11 0;
#X connect 13 0 14 0;
#X connect 15 0 16 0;
#X connect 18 0 19 0;
#X connect 20 0 22 0;
#X connect 21 0 20 0;
#X connect 22 0 1 0;
#X connect 40 0 4 0;
